# xmcd
#
# Track frame offsets: 
#        150
#        26996
#        47114
#        70453
#        89457
#        102750
#        119550
#        133163
#        149288
#        174476
#        192318
#
# Disc length: 2807 seconds
#
# Revision: 0
# Processed by: cddbd v1.5.2PL0 Copyright (c) Steve Scherf et al.
# Submitted via: ExactAudioCopy v0.95b4
#
DISCID=a80af50b
DTITLE=Various Artist - Purple Worm Records CD Sampler Vol. 2
DYEAR=2008
DGENRE=Acid Jazz
TTITLE0=Man Made Noise/A Drawer
TTITLE1=GST Cardinals/To The End
TTITLE2=Shaun Chance/Renaissance Of Love
TTITLE3=Steer/I Don't Know
TTITLE4=The Cliques/Moodswings
TTITLE5=Someone and the Somethings/Puppeteer
TTITLE6=The Sorry Loves/Woman
TTITLE7=Farino/11:58
TTITLE8=Alex Larkkman/Captivate
TTITLE9=Ellerker/We're Here With You
TTITLE10=Arthur Nutley/When I Heard Him
EXTD=
EXTT0=
EXTT1=
EXTT2=
EXTT3=
EXTT4=
EXTT5=
EXTT6=
EXTT7=
EXTT8=
EXTT9=
EXTT10=
PLAYORDER=
